<svg width="165" height="173" viewBox="0 0 165 173" fill="none" xmlns="http://www.w3.org/2000/svg">
<path d="M163.888 68.5991C163.306 66.1615 162.33 63.8146 160.513 62.0362L102.62 5.3601C101.134 3.90573 99.4724 2.6438 97.6735 1.60418L96.5949 0.980403C94.4199 -0.2771 91.7531 -0.327975 89.5318 0.845473L12.266 41.6585C8.37821 43.7123 5.67055 47.4704 4.94704 51.8169H4.9724C4.93821 52.0171 4.91064 52.2173 4.90071 52.423L0.232077 147.334C0.0192146 151.363 2.95187 154.87 6.94552 155.361L149.701 172.939C150.648 173.055 151.607 173.006 152.537 172.793C156.474 171.891 159.337 168.479 159.551 164.435L164.161 70.6607C164.198 69.9418 164.047 69.2616 163.888 68.5991Z" fill="url(#paint0_linear_299_21388)"/>
<path d="M163.888 68.5991C163.306 66.1615 162.33 63.8146 160.513 62.0362L102.62 5.3601C101.134 3.90573 99.4724 2.6438 97.6735 1.60418L96.5949 0.980403C94.4199 -0.2771 91.7531 -0.327975 89.5318 0.845473L12.266 41.6585C8.37821 43.7123 5.67055 47.4704 4.94704 51.8169H4.9724C4.93821 52.0171 4.91064 52.2173 4.90071 52.423L0.232077 147.334C0.0192146 151.363 2.95187 154.87 6.94552 155.361L149.701 172.939C150.648 173.055 151.607 173.006 152.537 172.793C156.474 171.891 159.337 168.479 159.551 164.435L164.161 70.6607C164.198 69.9418 164.047 69.2616 163.888 68.5991Z" fill="url(#paint1_linear_299_21388)"/>
<path d="M163.888 68.5991C163.5 66.1228 162.33 63.8146 160.513 62.0362L102.62 5.3601C101.134 3.90573 99.4724 2.6438 97.6735 1.60418L96.5949 0.980403C94.4199 -0.2771 91.7531 -0.327975 89.5318 0.845473L12.266 41.6585C8.37821 43.7123 5.67055 47.4704 4.94704 51.8169H4.9724C4.93821 52.0171 4.91064 52.2173 4.90071 52.423L0.232077 147.334C0.0192146 151.363 2.95187 154.87 6.94552 155.361L149.701 172.939C150.648 173.055 151.607 173.006 152.537 172.793C156.474 171.891 159.337 168.479 159.551 164.435L164.161 70.6607C164.198 69.9418 164.099 69.2472 163.888 68.5991Z" fill="url(#paint2_linear_299_21388)"/>
<mask id="mask0_299_21388" style="mask-type:luminance" maskUnits="userSpaceOnUse" x="12" y="13" width="114" height="123">
<path d="M110.084 24.8926C110.036 24.6094 109.98 24.3274 109.915 24.0465C108.569 18.2489 103.158 13.2211 96.9641 13.7907C96.9641 13.7907 25.0265 20.4675 25.0254 20.4675C17.541 21.1621 11.6459 27.2007 12.9904 35.1262C13.0036 35.207 28.1919 124.729 28.2117 124.845C29.3124 131.332 34.9549 135.836 41.332 135.947C41.332 135.947 113.178 129.279 113.27 129.27C117.537 128.874 121.698 126.411 123.943 122.72C126.518 118.486 125.161 113.763 124.391 109.222C122.677 101.38 121.69 93.3031 120.348 85.3887C118.077 72.003 115.806 58.6184 113.535 45.2327C112.385 38.453 111.237 31.6733 110.084 24.8937V24.8926Z" fill="white"/>
</mask>
<g mask="url(#mask0_299_21388)">
<path d="M110.099 24.8302C110.05 24.546 109.994 24.2639 109.929 23.9841C108.582 18.1832 103.169 13.1532 96.9709 13.7228L24.9936 20.403C17.5059 21.0975 11.6064 27.1395 12.952 35.0694C12.9652 35.1501 28.1623 124.72 28.1821 124.837C29.284 131.328 34.9298 135.833 41.309 135.945C41.309 135.945 113.195 129.273 113.286 129.265C117.556 128.869 121.719 126.404 123.965 122.712C126.542 118.475 125.185 113.75 124.414 109.206C122.7 101.36 121.712 93.2795 120.368 85.3596C118.096 71.9672 115.824 58.5737 113.551 45.1814C112.401 38.3984 111.25 31.6143 110.099 24.8313V24.8302Z" fill="url(#paint3_linear_299_21388)"/>
<path d="M110.098 24.8302C110.05 24.546 109.994 24.2639 109.929 23.9841C108.582 18.1832 103.169 13.1532 96.9705 13.7228L24.9931 20.403C17.5054 21.0975 11.6059 27.1395 12.9515 35.0694C12.9647 35.1501 28.1618 124.72 28.1817 124.837C29.2835 131.328 34.9293 135.833 41.3085 135.945C41.3085 135.945 113.194 129.273 113.286 129.265C117.555 128.869 121.719 126.404 123.964 122.712C126.542 118.475 125.184 113.75 124.413 109.206C122.699 101.36 121.711 93.2795 120.368 85.3596C118.096 71.9672 115.824 58.5737 113.551 45.1814C112.4 38.3984 111.25 31.6143 110.098 24.8313V24.8302Z" fill="url(#paint4_linear_299_21388)"/>
</g>
<mask id="mask1_299_21388" style="mask-type:luminance" maskUnits="userSpaceOnUse" x="42" y="6" width="119" height="139">
<path d="M159.839 48.3501C159.919 48.0736 159.991 47.7949 160.054 47.5151C161.365 41.7098 158.684 34.8184 152.863 32.6208C152.863 32.6208 85.2277 7.15669 85.2266 7.15669C78.19 4.50786 70.2578 7.3624 68.02 15.0811C67.9968 15.1596 42.7158 102.356 42.6839 102.47C40.8519 108.79 43.9698 115.311 49.6598 118.2C49.6598 118.2 117.209 143.632 117.295 143.664C121.307 145.174 126.123 144.779 129.748 142.439C133.908 139.756 134.742 134.913 136.025 130.489C137.894 122.684 140.52 114.984 142.756 107.275C146.535 94.2374 150.316 81.1989 154.096 68.1616C156.011 61.5578 157.926 54.9551 159.84 48.3501H159.839Z" fill="white"/>
</mask>
<g mask="url(#mask1_299_21388)">
<path d="M159.88 48.3021C159.96 48.0256 160.032 47.7469 160.095 47.466C161.407 41.6573 158.725 34.7626 152.899 32.5628L85.2267 7.08431C78.1868 4.43327 70.2503 7.29002 68.0102 15.0131C67.9871 15.0916 42.6928 102.337 42.6597 102.45C40.8267 108.773 43.9468 115.297 49.639 118.188C49.639 118.188 117.226 143.633 117.312 143.667C121.326 145.177 126.145 144.781 129.771 142.442C133.934 139.758 134.767 134.912 136.051 130.485C137.922 122.676 140.549 114.972 142.786 107.259C146.568 94.2137 150.349 81.1686 154.132 68.1235C156.048 61.5164 157.965 54.9092 159.88 48.3021Z" fill="url(#paint5_linear_299_21388)"/>
<path d="M159.88 48.3026C159.96 48.0261 160.032 47.7474 160.095 47.4664C161.407 41.6578 158.725 34.7631 152.899 32.5633L85.2267 7.0848C78.1868 4.43376 70.2503 7.29051 68.0102 15.0136C67.9871 15.0921 42.6928 102.338 42.6597 102.45C40.8267 108.773 43.9468 115.297 49.639 118.189C49.639 118.189 117.226 143.634 117.312 143.667C121.326 145.178 126.145 144.782 129.771 142.443C133.934 139.759 134.767 134.912 136.051 130.486C137.922 122.677 140.549 114.972 142.786 107.259C146.568 94.2141 150.349 81.1691 154.132 68.124C156.048 61.5169 157.965 54.9097 159.88 48.3026Z" fill="url(#paint6_linear_299_21388)"/>
</g>
<path d="M95.3442 72.4818C94.0879 72.0549 93.0523 71.1447 92.4645 69.9525L84.2477 53.2676C83.0246 50.7836 84.0404 47.7753 86.5175 46.5488C88.9958 45.3222 91.9946 46.3419 93.2177 48.826L99.2198 61.0139L123.234 49.1213C125.711 47.8947 128.71 48.9134 129.934 51.3974C131.157 53.8814 130.141 56.8897 127.664 58.1162L99.1647 72.2297C97.9746 72.8181 96.6015 72.9099 95.3442 72.483V72.4818Z" fill="url(#paint7_linear_299_21388)"/>
<mask id="mask2_299_21388" style="mask-type:luminance" maskUnits="userSpaceOnUse" x="0" y="47" width="165" height="126">
<path d="M155.899 67.4817L83.8305 110.793L15.0141 48.399C13.8538 47.3472 12.2546 46.9281 10.7293 47.2776L8.63485 47.7576C6.54593 48.2365 5.02611 50.0469 4.91251 52.1926L0.207473 147.78C0.00784563 151.56 2.75852 154.849 6.50512 155.31L149.586 172.927C150.609 173.053 151.644 173 152.648 172.77C156.519 171.883 159.335 168.529 159.545 164.553L164.192 70.031C164.316 67.683 162.165 65.868 159.879 66.3912L156.927 67.0669C156.564 67.1499 156.217 67.2903 155.898 67.4817H155.899Z" fill="white"/>
</mask>
<g mask="url(#mask2_299_21388)">
<path d="M155.911 67.4635L83.8303 110.783L15.0029 48.3787C13.8426 47.3258 12.2423 46.9077 10.717 47.2572L8.62144 47.7372C6.53142 48.2161 5.0116 50.0266 4.89911 52.1733L0.194073 147.778C-0.00555426 151.557 2.66791 154.89 6.41451 155.352L149.598 173.052C150.53 173.2 151.892 173.095 152.996 172.833C156.861 171.913 159.453 168.525 159.662 164.547L164.207 70.0139C164.331 67.6648 162.18 65.8499 159.894 66.373L156.943 67.0488C156.58 67.1317 156.232 67.2722 155.914 67.4635H155.911Z" fill="url(#paint8_linear_299_21388)"/>
<path d="M155.912 67.4635L83.8305 110.783L15.0031 48.3787C13.8428 47.3258 12.2425 46.9077 10.7172 47.2572L8.62165 47.7372C6.53163 48.2161 5.01181 50.0266 4.89931 52.1733L0.0707507 147.902C-0.128877 151.681 2.6229 154.971 6.3695 155.432L149.722 173.053C150.744 173.179 152.123 173.036 152.908 172.896C156.818 172.193 159.473 168.654 159.682 164.676L164.208 70.015C164.331 67.6659 162.18 65.851 159.894 66.3741L156.943 67.0499C156.58 67.1328 156.232 67.2733 155.914 67.4646L155.912 67.4635Z" fill="url(#paint9_linear_299_21388)"/>
<path d="M8.18596 47.8588L10.7966 47.2605C12.28 46.9209 13.8351 47.3279 14.9634 48.351L83.8305 110.791C80.224 112.959 75.6281 112.508 72.5102 109.68L7.44922 50.6912C6.46211 49.7954 6.88783 48.1563 8.18596 47.8588Z" fill="#C439A8"/>
</g>
<defs>
<linearGradient id="paint0_linear_299_21388" x1="94.389" y1="1.44934" x2="76.1363" y2="161.071" gradientUnits="userSpaceOnUse">
<stop stop-color="#E8C7FC"/>
<stop offset="0.16" stop-color="#E6C5FB"/>
<stop offset="0.22" stop-color="#DFBFFA"/>
<stop offset="0.26" stop-color="#D3B4F8"/>
<stop offset="0.29" stop-color="#C2A5F5"/>
<stop offset="0.32" stop-color="#AC91F1"/>
<stop offset="0.33" stop-color="#A389F0"/>
<stop offset="0.38" stop-color="#A389F0"/>
<stop offset="0.65" stop-color="#A389F0"/>
</linearGradient>
<linearGradient id="paint1_linear_299_21388" x1="44.4832" y1="146.42" x2="152.564" y2="36.8601" gradientUnits="userSpaceOnUse">
<stop offset="0.85" stop-color="#E8C7FC"/>
<stop offset="0.87" stop-color="#D6B7F8"/>
<stop offset="0.91" stop-color="#A88EF1"/>
<stop offset="0.92" stop-color="#A389F0"/>
<stop offset="0.94" stop-color="#9980F1"/>
<stop offset="1" stop-color="#7E69F4"/>
</linearGradient>
<linearGradient id="paint2_linear_299_21388" x1="82.1948" y1="0" x2="82.1948" y2="173" gradientUnits="userSpaceOnUse">
<stop stop-color="#D83BD9"/>
<stop offset="1" stop-color="#E0583E"/>
</linearGradient>
<linearGradient id="paint3_linear_299_21388" x1="15.4757" y1="83.3056" x2="124.241" y2="66.246" gradientUnits="userSpaceOnUse">
<stop offset="0.02" stop-color="#BED8D9"/>
<stop offset="0.05" stop-color="#D6E7E9"/>
<stop offset="0.08" stop-color="#EBF3F6"/>
<stop offset="0.1" stop-color="#F3F8FB"/>
<stop offset="0.82" stop-color="#DFEEF0"/>
<stop offset="0.85" stop-color="#D7E7E9"/>
<stop offset="0.9" stop-color="#C2D4D7"/>
<stop offset="0.96" stop-color="#A6BBBE"/>
</linearGradient>
<linearGradient id="paint4_linear_299_21388" x1="18" y1="5.5" x2="69.1128" y2="135.945" gradientUnits="userSpaceOnUse">
<stop stop-color="#F3F8FB"/>
<stop offset="0.203328" stop-color="#E5F1F4"/>
<stop offset="0.465325" stop-color="#CFE0E2"/>
<stop offset="0.645208" stop-color="#C7D9DB"/>
</linearGradient>
<linearGradient id="paint5_linear_299_21388" x1="49.2964" y1="59.5123" x2="154.674" y2="91.503" gradientUnits="userSpaceOnUse">
<stop offset="0.02" stop-color="#BED8D9"/>
<stop offset="0.05" stop-color="#D6E7E9"/>
<stop offset="0.08" stop-color="#EBF3F6"/>
<stop offset="0.1" stop-color="#F3F8FB"/>
<stop offset="0.82" stop-color="#DFEEF0"/>
<stop offset="0.85" stop-color="#D7E7E9"/>
<stop offset="0.9" stop-color="#C2D4D7"/>
<stop offset="0.96" stop-color="#A6BBBE"/>
</linearGradient>
<linearGradient id="paint6_linear_299_21388" x1="123.761" y1="16.5188" x2="77.5729" y2="136.603" gradientUnits="userSpaceOnUse">
<stop stop-color="#BED8D9"/>
<stop offset="0.03" stop-color="#D6E7E9"/>
<stop offset="0.06" stop-color="#EBF3F6"/>
<stop offset="0.09" stop-color="#F3F8FB"/>
<stop offset="0.16" stop-color="#F1F7FA"/>
<stop offset="0.47" stop-color="#DFEEF0"/>
<stop offset="0.87" stop-color="#A6BBBE"/>
</linearGradient>
<linearGradient id="paint7_linear_299_21388" x1="100.347" y1="48.2323" x2="102.486" y2="73.3969" gradientUnits="userSpaceOnUse">
<stop stop-color="#DDC275"/>
<stop offset="0.14" stop-color="#E3C97B"/>
<stop offset="0.27" stop-color="#E4CE86"/>
<stop offset="0.37" stop-color="#E0C77A"/>
<stop offset="0.49" stop-color="#D2B061"/>
<stop offset="0.7" stop-color="#D1AF5D"/>
<stop offset="0.98" stop-color="#BA9145"/>
<stop offset="1" stop-color="#F29E50"/>
<stop offset="1" stop-color="#BC954A"/>
</linearGradient>
<linearGradient id="paint8_linear_299_21388" x1="-3.15438" y1="106.057" x2="176.08" y2="114.662" gradientUnits="userSpaceOnUse">
<stop stop-color="#C9B3F8"/>
<stop offset="0.09" stop-color="#E8C7FC"/>
<stop offset="0.85" stop-color="#E8C7FC"/>
<stop offset="0.87" stop-color="#D6B7F8"/>
<stop offset="0.9" stop-color="#A88EF1"/>
<stop offset="0.91" stop-color="#A389F0"/>
<stop offset="0.93" stop-color="#9980F1"/>
<stop offset="1" stop-color="#7E69F4"/>
</linearGradient>
<linearGradient id="paint9_linear_299_21388" x1="82.1366" y1="47.1362" x2="74" y2="222" gradientUnits="userSpaceOnUse">
<stop stop-color="#D83BD9"/>
<stop offset="1" stop-color="#E0583E"/>
</linearGradient>
</defs>
</svg>
