<svg width="40" height="40" viewBox="0 0 40 40" fill="none" xmlns="http://www.w3.org/2000/svg">
<path fill-rule="evenodd" clip-rule="evenodd" d="M20 0C31.0457 0 40 8.95429 40 20C40 31.0457 31.0457 40 20 40C8.95429 40 0 31.0457 0 20C0 8.95429 8.95429 0 20 0Z" fill="#1E1E1E"/>
<path fill-rule="evenodd" clip-rule="evenodd" d="M20 0C31.0457 0 40 8.95429 40 20C40 31.0457 31.0457 40 20 40C8.95429 40 0 31.0457 0 20C0 8.95429 8.95429 0 20 0Z" fill="#121212"/>
<mask id="mask0_396_24" style="mask-type:luminance" maskUnits="userSpaceOnUse" x="13" y="17" width="27" height="23">
<path d="M39.8677 17.6904L13.0425 38.7565C15.2092 39.5605 17.5532 39.9998 19.9997 39.9998C31.0454 39.9998 39.9997 31.0455 39.9997 19.9998C39.9997 19.2189 39.955 18.4482 39.8677 17.6904Z" fill="white"/>
</mask>
<g mask="url(#mask0_396_24)">
<path d="M39.9994 17.6904H13.0425V39.9998H39.9994V17.6904Z" fill="url(#paint0_linear_396_24)"/>
</g>
<mask id="mask1_396_24" style="mask-type:luminance" maskUnits="userSpaceOnUse" x="1" y="3" width="30" height="36">
<path d="M13.043 38.7568L30.999 3.29346L1.14795 26.6941C3.12671 32.2668 7.50649 36.7025 13.043 38.7568Z" fill="white"/>
</mask>
<g mask="url(#mask1_396_24)">
<path d="M30.999 3.29346H1.14795V38.7568H30.999V3.29346Z" fill="url(#paint1_linear_396_24)"/>
</g>
<defs>
<linearGradient id="paint0_linear_396_24" x1="26.521" y1="17.6904" x2="26.521" y2="39.9998" gradientUnits="userSpaceOnUse">
<stop stop-color="#D83BD9"/>
<stop offset="1" stop-color="#E0583E"/>
</linearGradient>
<linearGradient id="paint1_linear_396_24" x1="16.0735" y1="3.29346" x2="16.0735" y2="38.7568" gradientUnits="userSpaceOnUse">
<stop stop-color="#D83BD9"/>
<stop offset="1" stop-color="#E0583E"/>
</linearGradient>
</defs>
</svg>
